<mxfile host="65bd71144e">
    <diagram id="Lh9r25SduS7LkeW2YWzv" name="Standard">
        <mxGraphModel dx="1374" dy="781" grid="0" gridSize="10" guides="1" tooltips="1" connect="1" arrows="1" fold="1" page="1" pageScale="1" pageWidth="827" pageHeight="1169" math="0" shadow="0">
            <root>
                <mxCell id="0"/>
                <mxCell id="1" parent="0"/>
                <mxCell id="13" style="edgeStyle=none;sketch=1;html=1;exitX=0.5;exitY=1;exitDx=0;exitDy=0;entryX=0.5;entryY=0;entryDx=0;entryDy=0;endArrow=open;endFill=0;" parent="1" source="2" target="7" edge="1">
                    <mxGeometry relative="1" as="geometry"/>
                </mxCell>
                <mxCell id="2" value="Client" style="html=1;sketch=1;fontStyle=1" parent="1" vertex="1">
                    <mxGeometry x="213" y="94" width="110" height="50" as="geometry"/>
                </mxCell>
                <mxCell id="7" value="«interface»&#10;Component" style="swimlane;fontStyle=1;align=center;verticalAlign=top;childLayout=stackLayout;horizontal=1;startSize=40;horizontalStack=0;resizeParent=1;resizeParentMax=0;resizeLast=0;collapsible=1;marginBottom=0;sketch=1;" parent="1" vertex="1">
                    <mxGeometry x="188" y="225" width="160" height="66" as="geometry"/>
                </mxCell>
                <mxCell id="8" value="+ execute()" style="text;strokeColor=none;fillColor=none;align=left;verticalAlign=top;spacingLeft=4;spacingRight=4;overflow=hidden;rotatable=0;points=[[0,0.5],[1,0.5]];portConstraint=eastwest;sketch=1;" parent="7" vertex="1">
                    <mxGeometry y="40" width="160" height="26" as="geometry"/>
                </mxCell>
                <mxCell id="23" style="edgeStyle=orthogonalEdgeStyle;sketch=1;html=1;exitX=0.5;exitY=0;exitDx=0;exitDy=0;entryX=0.504;entryY=1.002;entryDx=0;entryDy=0;entryPerimeter=0;endArrow=block;endFill=0;rounded=0;dashed=1;" parent="1" source="14" target="8" edge="1">
                    <mxGeometry relative="1" as="geometry"/>
                </mxCell>
                <mxCell id="14" value="ConcreteComponent" style="swimlane;fontStyle=1;align=center;verticalAlign=top;childLayout=stackLayout;horizontal=1;startSize=26;horizontalStack=0;resizeParent=1;resizeParentMax=0;resizeLast=0;collapsible=1;marginBottom=0;sketch=1;" parent="1" vertex="1">
                    <mxGeometry x="121" y="346" width="160" height="86" as="geometry"/>
                </mxCell>
                <mxCell id="15" value="..." style="text;strokeColor=none;fillColor=none;align=left;verticalAlign=top;spacingLeft=4;spacingRight=4;overflow=hidden;rotatable=0;points=[[0,0.5],[1,0.5]];portConstraint=eastwest;sketch=1;" parent="14" vertex="1">
                    <mxGeometry y="26" width="160" height="26" as="geometry"/>
                </mxCell>
                <mxCell id="16" value="" style="line;strokeWidth=1;fillColor=none;align=left;verticalAlign=middle;spacingTop=-1;spacingLeft=3;spacingRight=3;rotatable=0;labelPosition=right;points=[];portConstraint=eastwest;sketch=1;" parent="14" vertex="1">
                    <mxGeometry y="52" width="160" height="8" as="geometry"/>
                </mxCell>
                <mxCell id="17" value="+ execute()" style="text;strokeColor=none;fillColor=none;align=left;verticalAlign=top;spacingLeft=4;spacingRight=4;overflow=hidden;rotatable=0;points=[[0,0.5],[1,0.5]];portConstraint=eastwest;sketch=1;" parent="14" vertex="1">
                    <mxGeometry y="60" width="160" height="26" as="geometry"/>
                </mxCell>
                <mxCell id="24" style="edgeStyle=orthogonalEdgeStyle;rounded=0;sketch=1;html=1;exitX=0.5;exitY=0;exitDx=0;exitDy=0;entryX=0.503;entryY=0.999;entryDx=0;entryDy=0;entryPerimeter=0;endArrow=block;endFill=0;dashed=1;" parent="1" source="18" target="8" edge="1">
                    <mxGeometry relative="1" as="geometry"/>
                </mxCell>
                <mxCell id="18" value="BaseDecorator" style="swimlane;fontStyle=1;align=center;verticalAlign=top;childLayout=stackLayout;horizontal=1;startSize=26;horizontalStack=0;resizeParent=1;resizeParentMax=0;resizeLast=0;collapsible=1;marginBottom=0;sketch=1;" parent="1" vertex="1">
                    <mxGeometry x="329" y="346" width="201" height="112" as="geometry"/>
                </mxCell>
                <mxCell id="19" value="- wrappee: Component" style="text;strokeColor=none;fillColor=none;align=left;verticalAlign=top;spacingLeft=4;spacingRight=4;overflow=hidden;rotatable=0;points=[[0,0.5],[1,0.5]];portConstraint=eastwest;sketch=1;" parent="18" vertex="1">
                    <mxGeometry y="26" width="201" height="26" as="geometry"/>
                </mxCell>
                <mxCell id="20" value="" style="line;strokeWidth=1;fillColor=none;align=left;verticalAlign=middle;spacingTop=-1;spacingLeft=3;spacingRight=3;rotatable=0;labelPosition=right;points=[];portConstraint=eastwest;sketch=1;" parent="18" vertex="1">
                    <mxGeometry y="52" width="201" height="8" as="geometry"/>
                </mxCell>
                <mxCell id="22" value="+ BaseDecorator(c: Component)" style="text;strokeColor=none;fillColor=none;align=left;verticalAlign=top;spacingLeft=4;spacingRight=4;overflow=hidden;rotatable=0;points=[[0,0.5],[1,0.5]];portConstraint=eastwest;sketch=1;" parent="18" vertex="1">
                    <mxGeometry y="60" width="201" height="26" as="geometry"/>
                </mxCell>
                <mxCell id="21" value="+ execute()" style="text;strokeColor=none;fillColor=none;align=left;verticalAlign=top;spacingLeft=4;spacingRight=4;overflow=hidden;rotatable=0;points=[[0,0.5],[1,0.5]];portConstraint=eastwest;sketch=1;" parent="18" vertex="1">
                    <mxGeometry y="86" width="201" height="26" as="geometry"/>
                </mxCell>
                <mxCell id="27" style="edgeStyle=orthogonalEdgeStyle;rounded=0;sketch=1;html=1;exitX=1;exitY=0.5;exitDx=0;exitDy=0;endArrow=open;endFill=0;entryX=1;entryY=0.25;entryDx=0;entryDy=0;startArrow=diamondThin;startFill=0;" parent="1" source="19" target="7" edge="1">
                    <mxGeometry relative="1" as="geometry">
                        <mxPoint x="607.2" y="385.20000000000005" as="targetPoint"/>
                    </mxGeometry>
                </mxCell>
                <mxCell id="28" value="a = new ConComponent()&lt;br&gt;b = new ConcDecorator1(a)&lt;br&gt;c = new ConcDecorator2(b)&lt;br&gt;c.execute()&lt;br&gt;// Decorator2 -&amp;gt; Decorator1 -&amp;gt; Component" style="whiteSpace=wrap;html=1;rounded=1;arcSize=50;align=left;verticalAlign=middle;strokeWidth=1;autosize=1;spacing=15;treeFolding=1;treeMoving=1;newEdgeStyle={&quot;edgeStyle&quot;:&quot;entityRelationEdgeStyle&quot;,&quot;startArrow&quot;:&quot;none&quot;,&quot;endArrow&quot;:&quot;none&quot;,&quot;segment&quot;:10,&quot;curved&quot;:1};sketch=1;" parent="1" vertex="1">
                    <mxGeometry x="359" y="37" width="283" height="104" as="geometry"/>
                </mxCell>
                <mxCell id="29" value="" style="edgeStyle=entityRelationEdgeStyle;startArrow=none;endArrow=none;segment=10;curved=1;rounded=0;sketch=1;exitX=1;exitY=0.5;exitDx=0;exitDy=0;" parent="1" source="2" target="28" edge="1">
                    <mxGeometry relative="1" as="geometry">
                        <mxPoint x="366" y="118" as="sourcePoint"/>
                    </mxGeometry>
                </mxCell>
                <mxCell id="30" value="wrappee = c" style="whiteSpace=wrap;html=1;rounded=1;arcSize=50;align=center;verticalAlign=middle;strokeWidth=1;autosize=1;spacing=4;treeFolding=1;treeMoving=1;newEdgeStyle={&quot;edgeStyle&quot;:&quot;entityRelationEdgeStyle&quot;,&quot;startArrow&quot;:&quot;none&quot;,&quot;endArrow&quot;:&quot;none&quot;,&quot;segment&quot;:10,&quot;curved&quot;:1};sketch=1;" parent="1" vertex="1">
                    <mxGeometry x="585" y="389" width="101" height="26" as="geometry"/>
                </mxCell>
                <mxCell id="31" value="" style="edgeStyle=entityRelationEdgeStyle;startArrow=none;endArrow=none;segment=10;curved=1;rounded=0;sketch=1;exitX=1;exitY=0.5;exitDx=0;exitDy=0;" parent="1" source="22" target="30" edge="1">
                    <mxGeometry relative="1" as="geometry">
                        <mxPoint x="559" y="429" as="sourcePoint"/>
                    </mxGeometry>
                </mxCell>
                <mxCell id="32" value="wrappee.execute()" style="whiteSpace=wrap;html=1;rounded=1;arcSize=50;align=center;verticalAlign=middle;strokeWidth=1;autosize=1;spacing=4;treeFolding=1;treeMoving=1;newEdgeStyle={&quot;edgeStyle&quot;:&quot;entityRelationEdgeStyle&quot;,&quot;startArrow&quot;:&quot;none&quot;,&quot;endArrow&quot;:&quot;none&quot;,&quot;segment&quot;:10,&quot;curved&quot;:1};sketch=1;" parent="1" vertex="1">
                    <mxGeometry x="573" y="429" width="134" height="26" as="geometry"/>
                </mxCell>
                <mxCell id="33" value="" style="edgeStyle=entityRelationEdgeStyle;startArrow=none;endArrow=none;segment=10;curved=1;rounded=0;sketch=1;exitX=1;exitY=0.5;exitDx=0;exitDy=0;" parent="1" source="21" target="32" edge="1">
                    <mxGeometry relative="1" as="geometry">
                        <mxPoint x="564" y="469" as="sourcePoint"/>
                    </mxGeometry>
                </mxCell>
                <mxCell id="39" style="edgeStyle=orthogonalEdgeStyle;rounded=0;sketch=1;html=1;exitX=0.5;exitY=0;exitDx=0;exitDy=0;entryX=0.503;entryY=1.007;entryDx=0;entryDy=0;entryPerimeter=0;startArrow=none;startFill=0;endArrow=block;endFill=0;" parent="1" source="34" target="21" edge="1">
                    <mxGeometry relative="1" as="geometry"/>
                </mxCell>
                <mxCell id="34" value="ConcreteDecorators" style="swimlane;fontStyle=1;align=center;verticalAlign=top;childLayout=stackLayout;horizontal=1;startSize=26;horizontalStack=0;resizeParent=1;resizeParentMax=0;resizeLast=0;collapsible=1;marginBottom=0;sketch=1;" parent="1" vertex="1">
                    <mxGeometry x="349.5" y="489" width="160" height="112" as="geometry"/>
                </mxCell>
                <mxCell id="35" value="..." style="text;strokeColor=none;fillColor=none;align=left;verticalAlign=top;spacingLeft=4;spacingRight=4;overflow=hidden;rotatable=0;points=[[0,0.5],[1,0.5]];portConstraint=eastwest;sketch=1;" parent="34" vertex="1">
                    <mxGeometry y="26" width="160" height="26" as="geometry"/>
                </mxCell>
                <mxCell id="36" value="" style="line;strokeWidth=1;fillColor=none;align=left;verticalAlign=middle;spacingTop=-1;spacingLeft=3;spacingRight=3;rotatable=0;labelPosition=right;points=[];portConstraint=eastwest;sketch=1;" parent="34" vertex="1">
                    <mxGeometry y="52" width="160" height="8" as="geometry"/>
                </mxCell>
                <mxCell id="37" value="+ execute()" style="text;strokeColor=none;fillColor=none;align=left;verticalAlign=top;spacingLeft=4;spacingRight=4;overflow=hidden;rotatable=0;points=[[0,0.5],[1,0.5]];portConstraint=eastwest;sketch=1;" parent="34" vertex="1">
                    <mxGeometry y="60" width="160" height="26" as="geometry"/>
                </mxCell>
                <mxCell id="38" value="+ extra()" style="text;strokeColor=none;fillColor=none;align=left;verticalAlign=top;spacingLeft=4;spacingRight=4;overflow=hidden;rotatable=0;points=[[0,0.5],[1,0.5]];portConstraint=eastwest;sketch=1;" parent="34" vertex="1">
                    <mxGeometry y="86" width="160" height="26" as="geometry"/>
                </mxCell>
                <mxCell id="40" value="super::execute()&lt;br&gt;extra()" style="whiteSpace=wrap;html=1;rounded=1;arcSize=50;align=left;verticalAlign=middle;strokeWidth=1;autosize=1;spacing=10;treeFolding=1;treeMoving=1;newEdgeStyle={&quot;edgeStyle&quot;:&quot;entityRelationEdgeStyle&quot;,&quot;startArrow&quot;:&quot;none&quot;,&quot;endArrow&quot;:&quot;none&quot;,&quot;segment&quot;:10,&quot;curved&quot;:1};sketch=1;" parent="1" vertex="1">
                    <mxGeometry x="565" y="533" width="106" height="52" as="geometry"/>
                </mxCell>
                <mxCell id="41" value="" style="edgeStyle=entityRelationEdgeStyle;startArrow=none;endArrow=none;segment=10;curved=1;rounded=0;sketch=1;exitX=1;exitY=0.5;exitDx=0;exitDy=0;" parent="1" source="37" target="40" edge="1">
                    <mxGeometry relative="1" as="geometry">
                        <mxPoint x="550" y="586" as="sourcePoint"/>
                    </mxGeometry>
                </mxCell>
            </root>
        </mxGraphModel>
    </diagram>
    <diagram id="MTGeTnUHWC9IaewwzcIJ" name="Practice">
        <mxGraphModel dx="785" dy="446" grid="0" gridSize="10" guides="1" tooltips="1" connect="1" arrows="1" fold="1" page="1" pageScale="1" pageWidth="827" pageHeight="1169" math="0" shadow="0">
            <root>
                <mxCell id="p4NftemY81VbafwqlQdd-0"/>
                <mxCell id="p4NftemY81VbafwqlQdd-1" parent="p4NftemY81VbafwqlQdd-0"/>
                <mxCell id="p4NftemY81VbafwqlQdd-8" style="edgeStyle=orthogonalEdgeStyle;rounded=0;sketch=1;html=1;exitX=0.5;exitY=1;exitDx=0;exitDy=0;entryX=0.5;entryY=0;entryDx=0;entryDy=0;startArrow=none;startFill=0;endArrow=open;endFill=0;" parent="p4NftemY81VbafwqlQdd-1" source="p4NftemY81VbafwqlQdd-2" target="p4NftemY81VbafwqlQdd-3" edge="1">
                    <mxGeometry relative="1" as="geometry"/>
                </mxCell>
                <mxCell id="p4NftemY81VbafwqlQdd-2" value="Client" style="html=1;sketch=1;fontStyle=1" parent="p4NftemY81VbafwqlQdd-1" vertex="1">
                    <mxGeometry x="336" y="107" width="110" height="50" as="geometry"/>
                </mxCell>
                <mxCell id="p4NftemY81VbafwqlQdd-3" value="«interface»&#10;Tank" style="swimlane;fontStyle=1;align=center;verticalAlign=top;childLayout=stackLayout;horizontal=1;startSize=39;horizontalStack=0;resizeParent=1;resizeParentMax=0;resizeLast=0;collapsible=1;marginBottom=0;sketch=1;" parent="p4NftemY81VbafwqlQdd-1" vertex="1">
                    <mxGeometry x="311" y="237" width="160" height="117" as="geometry"/>
                </mxCell>
                <mxCell id="p4NftemY81VbafwqlQdd-6" value="+ fire()" style="text;strokeColor=none;fillColor=none;align=left;verticalAlign=top;spacingLeft=4;spacingRight=4;overflow=hidden;rotatable=0;points=[[0,0.5],[1,0.5]];portConstraint=eastwest;sketch=1;" parent="p4NftemY81VbafwqlQdd-3" vertex="1">
                    <mxGeometry y="39" width="160" height="26" as="geometry"/>
                </mxCell>
                <mxCell id="p4NftemY81VbafwqlQdd-9" value="+ countermeasure()" style="text;strokeColor=none;fillColor=none;align=left;verticalAlign=top;spacingLeft=4;spacingRight=4;overflow=hidden;rotatable=0;points=[[0,0.5],[1,0.5]];portConstraint=eastwest;sketch=1;" parent="p4NftemY81VbafwqlQdd-3" vertex="1">
                    <mxGeometry y="65" width="160" height="26" as="geometry"/>
                </mxCell>
                <mxCell id="w73Zvp84zMGraOu_5ncO-2" value="+ getName()" style="text;strokeColor=none;fillColor=none;align=left;verticalAlign=top;spacingLeft=4;spacingRight=4;overflow=hidden;rotatable=0;points=[[0,0.5],[1,0.5]];portConstraint=eastwest;sketch=1;" vertex="1" parent="p4NftemY81VbafwqlQdd-3">
                    <mxGeometry y="91" width="160" height="26" as="geometry"/>
                </mxCell>
                <mxCell id="p4NftemY81VbafwqlQdd-15" style="edgeStyle=orthogonalEdgeStyle;rounded=0;sketch=1;html=1;exitX=0.5;exitY=0;exitDx=0;exitDy=0;startArrow=none;startFill=0;endArrow=block;endFill=0;entryX=0.502;entryY=0.996;entryDx=0;entryDy=0;entryPerimeter=0;" parent="p4NftemY81VbafwqlQdd-1" source="p4NftemY81VbafwqlQdd-10" target="w73Zvp84zMGraOu_5ncO-2" edge="1">
                    <mxGeometry relative="1" as="geometry">
                        <mxPoint x="384" y="367" as="targetPoint"/>
                    </mxGeometry>
                </mxCell>
                <mxCell id="p4NftemY81VbafwqlQdd-10" value="ConcreteTank" style="swimlane;fontStyle=1;align=center;verticalAlign=top;childLayout=stackLayout;horizontal=1;startSize=26;horizontalStack=0;resizeParent=1;resizeParentMax=0;resizeLast=0;collapsible=1;marginBottom=0;sketch=1;" parent="p4NftemY81VbafwqlQdd-1" vertex="1">
                    <mxGeometry x="207" y="428" width="160" height="164" as="geometry"/>
                </mxCell>
                <mxCell id="p4NftemY81VbafwqlQdd-11" value="- name: string" style="text;strokeColor=none;fillColor=none;align=left;verticalAlign=top;spacingLeft=4;spacingRight=4;overflow=hidden;rotatable=0;points=[[0,0.5],[1,0.5]];portConstraint=eastwest;sketch=1;" parent="p4NftemY81VbafwqlQdd-10" vertex="1">
                    <mxGeometry y="26" width="160" height="26" as="geometry"/>
                </mxCell>
                <mxCell id="p4NftemY81VbafwqlQdd-12" value="" style="line;strokeWidth=1;fillColor=none;align=left;verticalAlign=middle;spacingTop=-1;spacingLeft=3;spacingRight=3;rotatable=0;labelPosition=right;points=[];portConstraint=eastwest;sketch=1;" parent="p4NftemY81VbafwqlQdd-10" vertex="1">
                    <mxGeometry y="52" width="160" height="8" as="geometry"/>
                </mxCell>
                <mxCell id="p4NftemY81VbafwqlQdd-23" value="+ ConcreteTank(n: string)" style="text;strokeColor=none;fillColor=none;align=left;verticalAlign=top;spacingLeft=4;spacingRight=4;overflow=hidden;rotatable=0;points=[[0,0.5],[1,0.5]];portConstraint=eastwest;sketch=1;" parent="p4NftemY81VbafwqlQdd-10" vertex="1">
                    <mxGeometry y="60" width="160" height="26" as="geometry"/>
                </mxCell>
                <mxCell id="p4NftemY81VbafwqlQdd-13" value="+ fire()" style="text;strokeColor=none;fillColor=none;align=left;verticalAlign=top;spacingLeft=4;spacingRight=4;overflow=hidden;rotatable=0;points=[[0,0.5],[1,0.5]];portConstraint=eastwest;sketch=1;" parent="p4NftemY81VbafwqlQdd-10" vertex="1">
                    <mxGeometry y="86" width="160" height="26" as="geometry"/>
                </mxCell>
                <mxCell id="p4NftemY81VbafwqlQdd-14" value="+ countermeasure()" style="text;strokeColor=none;fillColor=none;align=left;verticalAlign=top;spacingLeft=4;spacingRight=4;overflow=hidden;rotatable=0;points=[[0,0.5],[1,0.5]];portConstraint=eastwest;sketch=1;" parent="p4NftemY81VbafwqlQdd-10" vertex="1">
                    <mxGeometry y="112" width="160" height="26" as="geometry"/>
                </mxCell>
                <mxCell id="w73Zvp84zMGraOu_5ncO-0" value="+ getName(): string" style="text;strokeColor=none;fillColor=none;align=left;verticalAlign=top;spacingLeft=4;spacingRight=4;overflow=hidden;rotatable=0;points=[[0,0.5],[1,0.5]];portConstraint=eastwest;sketch=1;" vertex="1" parent="p4NftemY81VbafwqlQdd-10">
                    <mxGeometry y="138" width="160" height="26" as="geometry"/>
                </mxCell>
                <mxCell id="p4NftemY81VbafwqlQdd-22" style="edgeStyle=orthogonalEdgeStyle;rounded=0;sketch=1;html=1;exitX=0.5;exitY=0;exitDx=0;exitDy=0;startArrow=none;startFill=0;endArrow=block;endFill=0;entryX=0.501;entryY=1;entryDx=0;entryDy=0;entryPerimeter=0;" parent="p4NftemY81VbafwqlQdd-1" source="p4NftemY81VbafwqlQdd-16" target="w73Zvp84zMGraOu_5ncO-2" edge="1">
                    <mxGeometry relative="1" as="geometry">
                        <mxPoint x="416" y="369" as="targetPoint"/>
                    </mxGeometry>
                </mxCell>
                <mxCell id="p4NftemY81VbafwqlQdd-16" value="TankDecorator" style="swimlane;fontStyle=1;align=center;verticalAlign=top;childLayout=stackLayout;horizontal=1;startSize=26;horizontalStack=0;resizeParent=1;resizeParentMax=0;resizeLast=0;collapsible=1;marginBottom=0;sketch=1;" parent="p4NftemY81VbafwqlQdd-1" vertex="1">
                    <mxGeometry x="424" y="428" width="160" height="164" as="geometry"/>
                </mxCell>
                <mxCell id="p4NftemY81VbafwqlQdd-17" value="# wrappee: Tank" style="text;strokeColor=none;fillColor=none;align=left;verticalAlign=top;spacingLeft=4;spacingRight=4;overflow=hidden;rotatable=0;points=[[0,0.5],[1,0.5]];portConstraint=eastwest;sketch=1;" parent="p4NftemY81VbafwqlQdd-16" vertex="1">
                    <mxGeometry y="26" width="160" height="26" as="geometry"/>
                </mxCell>
                <mxCell id="p4NftemY81VbafwqlQdd-18" value="" style="line;strokeWidth=1;fillColor=none;align=left;verticalAlign=middle;spacingTop=-1;spacingLeft=3;spacingRight=3;rotatable=0;labelPosition=right;points=[];portConstraint=eastwest;sketch=1;" parent="p4NftemY81VbafwqlQdd-16" vertex="1">
                    <mxGeometry y="52" width="160" height="8" as="geometry"/>
                </mxCell>
                <mxCell id="p4NftemY81VbafwqlQdd-19" value="+ TankDecorator(t: Tank)" style="text;strokeColor=none;fillColor=none;align=left;verticalAlign=top;spacingLeft=4;spacingRight=4;overflow=hidden;rotatable=0;points=[[0,0.5],[1,0.5]];portConstraint=eastwest;sketch=1;" parent="p4NftemY81VbafwqlQdd-16" vertex="1">
                    <mxGeometry y="60" width="160" height="26" as="geometry"/>
                </mxCell>
                <mxCell id="p4NftemY81VbafwqlQdd-20" value="+ fire()" style="text;strokeColor=none;fillColor=none;align=left;verticalAlign=top;spacingLeft=4;spacingRight=4;overflow=hidden;rotatable=0;points=[[0,0.5],[1,0.5]];portConstraint=eastwest;sketch=1;" parent="p4NftemY81VbafwqlQdd-16" vertex="1">
                    <mxGeometry y="86" width="160" height="26" as="geometry"/>
                </mxCell>
                <mxCell id="p4NftemY81VbafwqlQdd-21" value="+ countermeasure()" style="text;strokeColor=none;fillColor=none;align=left;verticalAlign=top;spacingLeft=4;spacingRight=4;overflow=hidden;rotatable=0;points=[[0,0.5],[1,0.5]];portConstraint=eastwest;sketch=1;" parent="p4NftemY81VbafwqlQdd-16" vertex="1">
                    <mxGeometry y="112" width="160" height="26" as="geometry"/>
                </mxCell>
                <mxCell id="w73Zvp84zMGraOu_5ncO-1" value="+ getName()" style="text;strokeColor=none;fillColor=none;align=left;verticalAlign=top;spacingLeft=4;spacingRight=4;overflow=hidden;rotatable=0;points=[[0,0.5],[1,0.5]];portConstraint=eastwest;sketch=1;" vertex="1" parent="p4NftemY81VbafwqlQdd-16">
                    <mxGeometry y="138" width="160" height="26" as="geometry"/>
                </mxCell>
                <mxCell id="p4NftemY81VbafwqlQdd-30" style="edgeStyle=orthogonalEdgeStyle;rounded=0;sketch=1;html=1;exitX=0.5;exitY=0;exitDx=0;exitDy=0;startArrow=none;startFill=0;endArrow=block;endFill=0;entryX=0.497;entryY=0.997;entryDx=0;entryDy=0;entryPerimeter=0;" parent="p4NftemY81VbafwqlQdd-1" source="p4NftemY81VbafwqlQdd-24" target="w73Zvp84zMGraOu_5ncO-1" edge="1">
                    <mxGeometry relative="1" as="geometry">
                        <mxPoint x="492" y="605" as="targetPoint"/>
                    </mxGeometry>
                </mxCell>
                <mxCell id="p4NftemY81VbafwqlQdd-24" value="IRSmokeDecorator" style="swimlane;fontStyle=1;align=center;verticalAlign=top;childLayout=stackLayout;horizontal=1;startSize=26;horizontalStack=0;resizeParent=1;resizeParentMax=0;resizeLast=0;collapsible=1;marginBottom=0;sketch=1;" parent="p4NftemY81VbafwqlQdd-1" vertex="1">
                    <mxGeometry x="347" y="718" width="181" height="78" as="geometry"/>
                </mxCell>
                <mxCell id="p4NftemY81VbafwqlQdd-29" value="+ IRSmokeDecorator(t: Tank)" style="text;strokeColor=none;fillColor=none;align=left;verticalAlign=top;spacingLeft=4;spacingRight=4;overflow=hidden;rotatable=0;points=[[0,0.5],[1,0.5]];portConstraint=eastwest;sketch=1;" parent="p4NftemY81VbafwqlQdd-24" vertex="1">
                    <mxGeometry y="26" width="181" height="26" as="geometry"/>
                </mxCell>
                <mxCell id="p4NftemY81VbafwqlQdd-27" value="+ countermeasure()" style="text;strokeColor=none;fillColor=none;align=left;verticalAlign=top;spacingLeft=4;spacingRight=4;overflow=hidden;rotatable=0;points=[[0,0.5],[1,0.5]];portConstraint=eastwest;sketch=1;" parent="p4NftemY81VbafwqlQdd-24" vertex="1">
                    <mxGeometry y="52" width="181" height="26" as="geometry"/>
                </mxCell>
                <mxCell id="p4NftemY81VbafwqlQdd-28" style="edgeStyle=orthogonalEdgeStyle;rounded=0;sketch=1;html=1;exitX=1;exitY=0.5;exitDx=0;exitDy=0;entryX=1;entryY=0.25;entryDx=0;entryDy=0;startArrow=diamondThin;startFill=0;endArrow=open;endFill=0;" parent="p4NftemY81VbafwqlQdd-1" source="p4NftemY81VbafwqlQdd-17" target="p4NftemY81VbafwqlQdd-3" edge="1">
                    <mxGeometry relative="1" as="geometry"/>
                </mxCell>
                <mxCell id="p4NftemY81VbafwqlQdd-35" style="edgeStyle=orthogonalEdgeStyle;rounded=0;sketch=1;html=1;exitX=0.5;exitY=0;exitDx=0;exitDy=0;startArrow=none;startFill=0;endArrow=block;endFill=0;" parent="p4NftemY81VbafwqlQdd-1" source="p4NftemY81VbafwqlQdd-31" edge="1">
                    <mxGeometry relative="1" as="geometry">
                        <mxPoint x="503" y="592" as="targetPoint"/>
                    </mxGeometry>
                </mxCell>
                <mxCell id="p4NftemY81VbafwqlQdd-31" value="ActiveProtection" style="swimlane;fontStyle=1;align=center;verticalAlign=top;childLayout=stackLayout;horizontal=1;startSize=26;horizontalStack=0;resizeParent=1;resizeParentMax=0;resizeLast=0;collapsible=1;marginBottom=0;sketch=1;" parent="p4NftemY81VbafwqlQdd-1" vertex="1">
                    <mxGeometry x="540" y="718" width="160" height="78" as="geometry"/>
                </mxCell>
                <mxCell id="p4NftemY81VbafwqlQdd-34" value="+ ActiveProtection(t: Tank)" style="text;strokeColor=none;fillColor=none;align=left;verticalAlign=top;spacingLeft=4;spacingRight=4;overflow=hidden;rotatable=0;points=[[0,0.5],[1,0.5]];portConstraint=eastwest;sketch=1;" parent="p4NftemY81VbafwqlQdd-31" vertex="1">
                    <mxGeometry y="26" width="160" height="26" as="geometry"/>
                </mxCell>
                <mxCell id="p4NftemY81VbafwqlQdd-36" value="+ countermeasure()" style="text;strokeColor=none;fillColor=none;align=left;verticalAlign=top;spacingLeft=4;spacingRight=4;overflow=hidden;rotatable=0;points=[[0,0.5],[1,0.5]];portConstraint=eastwest;sketch=1;" parent="p4NftemY81VbafwqlQdd-31" vertex="1">
                    <mxGeometry y="52" width="160" height="26" as="geometry"/>
                </mxCell>
                <mxCell id="p4NftemY81VbafwqlQdd-42" style="edgeStyle=orthogonalEdgeStyle;rounded=0;sketch=1;html=1;exitX=0.5;exitY=0;exitDx=0;exitDy=0;startArrow=none;startFill=0;endArrow=block;endFill=0;entryX=0.495;entryY=0.997;entryDx=0;entryDy=0;entryPerimeter=0;" parent="p4NftemY81VbafwqlQdd-1" source="p4NftemY81VbafwqlQdd-37" target="w73Zvp84zMGraOu_5ncO-1" edge="1">
                    <mxGeometry relative="1" as="geometry">
                        <mxPoint x="504" y="593" as="targetPoint"/>
                    </mxGeometry>
                </mxCell>
                <mxCell id="p4NftemY81VbafwqlQdd-37" value="ReactiveArmorDecorator" style="swimlane;fontStyle=1;align=center;verticalAlign=top;childLayout=stackLayout;horizontal=1;startSize=26;horizontalStack=0;resizeParent=1;resizeParentMax=0;resizeLast=0;collapsible=1;marginBottom=0;sketch=1;" parent="p4NftemY81VbafwqlQdd-1" vertex="1">
                    <mxGeometry x="132" y="718" width="199" height="78" as="geometry"/>
                </mxCell>
                <mxCell id="p4NftemY81VbafwqlQdd-40" value="+ ReactiveArmorDecorator(t: Tank)" style="text;strokeColor=none;fillColor=none;align=left;verticalAlign=top;spacingLeft=4;spacingRight=4;overflow=hidden;rotatable=0;points=[[0,0.5],[1,0.5]];portConstraint=eastwest;sketch=1;" parent="p4NftemY81VbafwqlQdd-37" vertex="1">
                    <mxGeometry y="26" width="199" height="26" as="geometry"/>
                </mxCell>
                <mxCell id="p4NftemY81VbafwqlQdd-41" value="+ countermeasure()" style="text;strokeColor=none;fillColor=none;align=left;verticalAlign=top;spacingLeft=4;spacingRight=4;overflow=hidden;rotatable=0;points=[[0,0.5],[1,0.5]];portConstraint=eastwest;sketch=1;" parent="p4NftemY81VbafwqlQdd-37" vertex="1">
                    <mxGeometry y="52" width="199" height="26" as="geometry"/>
                </mxCell>
            </root>
        </mxGraphModel>
    </diagram>
</mxfile>